<mxfile host="app.diagrams.net" modified="2022-01-04T15:11:48.516Z" agent="5.0 (Macintosh; Intel Mac OS X 10_15_7) AppleWebKit/537.36 (KHTML, like Gecko) Chrome/96.0.4664.110 Safari/537.36" etag="EDPlMkwnF4hH0TOvLCi3" version="16.1.0" type="github">
  <diagram id="oSEPam-5N_MgBF8J4wym" name="Page-1">
    <mxGraphModel dx="1577" dy="1023" grid="1" gridSize="10" guides="1" tooltips="1" connect="1" arrows="1" fold="1" page="1" pageScale="1" pageWidth="827" pageHeight="583" math="0" shadow="0">
      <root>
        <mxCell id="0" />
        <mxCell id="1" parent="0" />
        <mxCell id="hVWltW0Ck8g595AkQHXP-46" style="edgeStyle=orthogonalEdgeStyle;shape=flexArrow;rounded=0;orthogonalLoop=1;jettySize=auto;html=1;exitX=0.5;exitY=1;exitDx=0;exitDy=0;entryX=0.5;entryY=0;entryDx=0;entryDy=0;fillColor=#f8cecc;strokeColor=#b85450;" edge="1" parent="1" source="hVWltW0Ck8g595AkQHXP-3" target="hVWltW0Ck8g595AkQHXP-4">
          <mxGeometry relative="1" as="geometry" />
        </mxCell>
        <mxCell id="hVWltW0Ck8g595AkQHXP-3" value="3" style="rounded=0;whiteSpace=wrap;html=1;rotation=-90;fillColor=#ffe6cc;strokeColor=#d79b00;" vertex="1" parent="1">
          <mxGeometry y="135" width="120" height="10" as="geometry" />
        </mxCell>
        <mxCell id="hVWltW0Ck8g595AkQHXP-47" style="edgeStyle=orthogonalEdgeStyle;shape=flexArrow;rounded=0;orthogonalLoop=1;jettySize=auto;html=1;exitX=0.5;exitY=1;exitDx=0;exitDy=0;entryX=0.5;entryY=0;entryDx=0;entryDy=0;fillColor=#f8cecc;strokeColor=#b85450;" edge="1" parent="1" source="hVWltW0Ck8g595AkQHXP-4" target="hVWltW0Ck8g595AkQHXP-5">
          <mxGeometry relative="1" as="geometry" />
        </mxCell>
        <mxCell id="hVWltW0Ck8g595AkQHXP-4" value="8" style="rounded=0;whiteSpace=wrap;html=1;rotation=-90;fillColor=#dae8fc;strokeColor=#6c8ebf;" vertex="1" parent="1">
          <mxGeometry x="50" y="125" width="120" height="30" as="geometry" />
        </mxCell>
        <mxCell id="hVWltW0Ck8g595AkQHXP-24" style="edgeStyle=orthogonalEdgeStyle;shape=flexArrow;rounded=0;orthogonalLoop=1;jettySize=auto;html=1;exitX=0;exitY=0.5;exitDx=0;exitDy=0;entryX=1;entryY=0.5;entryDx=0;entryDy=0;fillColor=#d5e8d4;strokeColor=#82b366;" edge="1" parent="1" source="hVWltW0Ck8g595AkQHXP-5" target="hVWltW0Ck8g595AkQHXP-6">
          <mxGeometry relative="1" as="geometry" />
        </mxCell>
        <mxCell id="hVWltW0Ck8g595AkQHXP-5" value="16" style="rounded=0;whiteSpace=wrap;html=1;rotation=-90;fillColor=#dae8fc;strokeColor=#6c8ebf;" vertex="1" parent="1">
          <mxGeometry x="110" y="125" width="120" height="30" as="geometry" />
        </mxCell>
        <mxCell id="hVWltW0Ck8g595AkQHXP-48" style="edgeStyle=orthogonalEdgeStyle;shape=flexArrow;rounded=0;orthogonalLoop=1;jettySize=auto;html=1;exitX=0.5;exitY=1;exitDx=0;exitDy=0;entryX=0.5;entryY=0;entryDx=0;entryDy=0;fillColor=#f8cecc;strokeColor=#b85450;" edge="1" parent="1" source="hVWltW0Ck8g595AkQHXP-6" target="hVWltW0Ck8g595AkQHXP-7">
          <mxGeometry relative="1" as="geometry" />
        </mxCell>
        <mxCell id="hVWltW0Ck8g595AkQHXP-6" value="16" style="rounded=0;whiteSpace=wrap;html=1;rotation=-90;fillColor=#dae8fc;strokeColor=#6c8ebf;" vertex="1" parent="1">
          <mxGeometry x="125" y="260" width="90" height="30" as="geometry" />
        </mxCell>
        <mxCell id="hVWltW0Ck8g595AkQHXP-49" style="edgeStyle=orthogonalEdgeStyle;shape=flexArrow;rounded=0;orthogonalLoop=1;jettySize=auto;html=1;exitX=0.5;exitY=1;exitDx=0;exitDy=0;entryX=0.5;entryY=0;entryDx=0;entryDy=0;fillColor=#f8cecc;strokeColor=#b85450;" edge="1" parent="1" source="hVWltW0Ck8g595AkQHXP-25" target="hVWltW0Ck8g595AkQHXP-38">
          <mxGeometry relative="1" as="geometry" />
        </mxCell>
        <mxCell id="hVWltW0Ck8g595AkQHXP-25" value="32" style="rounded=0;whiteSpace=wrap;html=1;rotation=-90;fillColor=#dae8fc;strokeColor=#6c8ebf;" vertex="1" parent="1">
          <mxGeometry x="202.5" y="360" width="65" height="42.5" as="geometry" />
        </mxCell>
        <mxCell id="hVWltW0Ck8g595AkQHXP-35" style="edgeStyle=orthogonalEdgeStyle;shape=flexArrow;rounded=0;orthogonalLoop=1;jettySize=auto;html=1;exitX=0;exitY=0.5;exitDx=0;exitDy=0;entryX=1;entryY=0.5;entryDx=0;entryDy=0;fillColor=#d5e8d4;strokeColor=#82b366;" edge="1" parent="1" source="hVWltW0Ck8g595AkQHXP-7" target="hVWltW0Ck8g595AkQHXP-25">
          <mxGeometry relative="1" as="geometry" />
        </mxCell>
        <mxCell id="hVWltW0Ck8g595AkQHXP-66" style="edgeStyle=orthogonalEdgeStyle;rounded=0;orthogonalLoop=1;jettySize=auto;html=1;exitX=0.5;exitY=1;exitDx=0;exitDy=0;entryX=0.5;entryY=0;entryDx=0;entryDy=0;dashed=1;endArrow=none;endFill=0;strokeColor=default;strokeWidth=2;" edge="1" parent="1" source="hVWltW0Ck8g595AkQHXP-7" target="hVWltW0Ck8g595AkQHXP-65">
          <mxGeometry relative="1" as="geometry" />
        </mxCell>
        <mxCell id="hVWltW0Ck8g595AkQHXP-7" value="32" style="rounded=0;whiteSpace=wrap;html=1;rotation=-90;fillColor=#dae8fc;strokeColor=#6c8ebf;" vertex="1" parent="1">
          <mxGeometry x="190" y="260" width="90" height="30" as="geometry" />
        </mxCell>
        <mxCell id="hVWltW0Ck8g595AkQHXP-52" style="edgeStyle=orthogonalEdgeStyle;shape=flexArrow;rounded=0;orthogonalLoop=1;jettySize=auto;html=1;exitX=0.5;exitY=1;exitDx=0;exitDy=0;entryX=0.5;entryY=0;entryDx=0;entryDy=0;fillColor=#f8cecc;strokeColor=#b85450;" edge="1" parent="1" source="hVWltW0Ck8g595AkQHXP-37" target="hVWltW0Ck8g595AkQHXP-43">
          <mxGeometry relative="1" as="geometry" />
        </mxCell>
        <mxCell id="hVWltW0Ck8g595AkQHXP-37" value="64" style="rounded=0;whiteSpace=wrap;html=1;rotation=-90;fillColor=#dae8fc;strokeColor=#6c8ebf;" vertex="1" parent="1">
          <mxGeometry x="290.63" y="430" width="43.75" height="76.25" as="geometry" />
        </mxCell>
        <mxCell id="hVWltW0Ck8g595AkQHXP-40" style="edgeStyle=orthogonalEdgeStyle;shape=flexArrow;rounded=0;orthogonalLoop=1;jettySize=auto;html=1;exitX=0;exitY=0.5;exitDx=0;exitDy=0;entryX=1;entryY=0.5;entryDx=0;entryDy=0;fillColor=#d5e8d4;strokeColor=#82b366;" edge="1" parent="1" source="hVWltW0Ck8g595AkQHXP-38" target="hVWltW0Ck8g595AkQHXP-37">
          <mxGeometry relative="1" as="geometry" />
        </mxCell>
        <mxCell id="hVWltW0Ck8g595AkQHXP-58" style="edgeStyle=orthogonalEdgeStyle;rounded=0;orthogonalLoop=1;jettySize=auto;html=1;exitX=0.5;exitY=1;exitDx=0;exitDy=0;strokeColor=default;endArrow=none;endFill=0;dashed=1;strokeWidth=2;entryX=0.5;entryY=0;entryDx=0;entryDy=0;" edge="1" parent="1" source="hVWltW0Ck8g595AkQHXP-38" target="hVWltW0Ck8g595AkQHXP-63">
          <mxGeometry relative="1" as="geometry">
            <mxPoint x="460" y="381" as="targetPoint" />
          </mxGeometry>
        </mxCell>
        <mxCell id="hVWltW0Ck8g595AkQHXP-38" value="64" style="rounded=0;whiteSpace=wrap;html=1;rotation=-90;fillColor=#dae8fc;strokeColor=#6c8ebf;" vertex="1" parent="1">
          <mxGeometry x="280" y="360" width="65" height="42.5" as="geometry" />
        </mxCell>
        <mxCell id="hVWltW0Ck8g595AkQHXP-53" style="edgeStyle=orthogonalEdgeStyle;shape=flexArrow;rounded=0;orthogonalLoop=1;jettySize=auto;html=1;exitX=0.5;exitY=1;exitDx=0;exitDy=0;entryX=0.5;entryY=0;entryDx=0;entryDy=0;fillColor=#f8cecc;strokeColor=#b85450;" edge="1" parent="1" source="hVWltW0Ck8g595AkQHXP-43" target="hVWltW0Ck8g595AkQHXP-44">
          <mxGeometry relative="1" as="geometry" />
        </mxCell>
        <mxCell id="hVWltW0Ck8g595AkQHXP-43" value="128" style="rounded=0;whiteSpace=wrap;html=1;rotation=-90;fillColor=#dae8fc;strokeColor=#6c8ebf;" vertex="1" parent="1">
          <mxGeometry x="400" y="430" width="43.75" height="76.25" as="geometry" />
        </mxCell>
        <mxCell id="hVWltW0Ck8g595AkQHXP-56" style="edgeStyle=orthogonalEdgeStyle;shape=flexArrow;rounded=0;orthogonalLoop=1;jettySize=auto;html=1;exitX=1;exitY=0.5;exitDx=0;exitDy=0;entryX=0;entryY=0.5;entryDx=0;entryDy=0;fillColor=#e1d5e7;strokeColor=#9673a6;" edge="1" parent="1" source="hVWltW0Ck8g595AkQHXP-44" target="hVWltW0Ck8g595AkQHXP-55">
          <mxGeometry relative="1" as="geometry" />
        </mxCell>
        <mxCell id="hVWltW0Ck8g595AkQHXP-44" value="128" style="rounded=0;whiteSpace=wrap;html=1;rotation=-90;fillColor=#dae8fc;strokeColor=#6c8ebf;" vertex="1" parent="1">
          <mxGeometry x="510" y="430" width="43.75" height="76.25" as="geometry" />
        </mxCell>
        <mxCell id="hVWltW0Ck8g595AkQHXP-54" value="64" style="rounded=0;whiteSpace=wrap;html=1;rotation=-90;fillColor=#dae8fc;strokeColor=#6c8ebf;" vertex="1" parent="1">
          <mxGeometry x="577.5" y="360" width="65" height="42.5" as="geometry" />
        </mxCell>
        <mxCell id="hVWltW0Ck8g595AkQHXP-57" style="edgeStyle=orthogonalEdgeStyle;shape=flexArrow;rounded=0;orthogonalLoop=1;jettySize=auto;html=1;exitX=0.5;exitY=1;exitDx=0;exitDy=0;entryX=0.5;entryY=0;entryDx=0;entryDy=0;fillColor=#f8cecc;strokeColor=#b85450;" edge="1" parent="1" source="hVWltW0Ck8g595AkQHXP-55" target="hVWltW0Ck8g595AkQHXP-54">
          <mxGeometry relative="1" as="geometry" />
        </mxCell>
        <mxCell id="hVWltW0Ck8g595AkQHXP-55" value="32" style="rounded=0;whiteSpace=wrap;html=1;rotation=-90;fillColor=#dae8fc;strokeColor=#6c8ebf;" vertex="1" parent="1">
          <mxGeometry x="500" y="360" width="65" height="42.5" as="geometry" />
        </mxCell>
        <mxCell id="hVWltW0Ck8g595AkQHXP-59" value="32" style="rounded=0;whiteSpace=wrap;html=1;rotation=-90;fillColor=#dae8fc;strokeColor=#6c8ebf;" vertex="1" parent="1">
          <mxGeometry x="630" y="260" width="90" height="30" as="geometry" />
        </mxCell>
        <mxCell id="hVWltW0Ck8g595AkQHXP-60" value="16" style="rounded=0;whiteSpace=wrap;html=1;rotation=-90;fillColor=#dae8fc;strokeColor=#6c8ebf;" vertex="1" parent="1">
          <mxGeometry x="565" y="260" width="90" height="30" as="geometry" />
        </mxCell>
        <mxCell id="hVWltW0Ck8g595AkQHXP-63" value="" style="rounded=0;whiteSpace=wrap;html=1;rotation=-90;" vertex="1" parent="1">
          <mxGeometry x="470" y="370" width="65" height="22.5" as="geometry" />
        </mxCell>
        <mxCell id="hVWltW0Ck8g595AkQHXP-65" value="" style="rounded=0;whiteSpace=wrap;html=1;rotation=-90;" vertex="1" parent="1">
          <mxGeometry x="540" y="265" width="90" height="20" as="geometry" />
        </mxCell>
        <mxCell id="hVWltW0Ck8g595AkQHXP-68" style="edgeStyle=orthogonalEdgeStyle;shape=flexArrow;rounded=0;orthogonalLoop=1;jettySize=auto;html=1;exitX=0.5;exitY=1;exitDx=0;exitDy=0;entryX=0.5;entryY=0;entryDx=0;entryDy=0;fillColor=#f8cecc;strokeColor=#b85450;" edge="1" parent="1" source="hVWltW0Ck8g595AkQHXP-60" target="hVWltW0Ck8g595AkQHXP-59">
          <mxGeometry relative="1" as="geometry">
            <mxPoint x="563.75" y="391.25" as="sourcePoint" />
            <mxPoint x="598.75" y="391.25" as="targetPoint" />
          </mxGeometry>
        </mxCell>
        <mxCell id="hVWltW0Ck8g595AkQHXP-70" style="edgeStyle=orthogonalEdgeStyle;shape=flexArrow;rounded=0;orthogonalLoop=1;jettySize=auto;html=1;entryX=0;entryY=0.5;entryDx=0;entryDy=0;fillColor=#e1d5e7;strokeColor=#9673a6;exitX=1;exitY=0.5;exitDx=0;exitDy=0;" edge="1" parent="1" source="hVWltW0Ck8g595AkQHXP-54" target="hVWltW0Ck8g595AkQHXP-60">
          <mxGeometry relative="1" as="geometry">
            <mxPoint x="610" y="340" as="sourcePoint" />
            <mxPoint x="542.5" y="423.75" as="targetPoint" />
          </mxGeometry>
        </mxCell>
        <mxCell id="hVWltW0Ck8g595AkQHXP-72" value="8" style="rounded=0;whiteSpace=wrap;html=1;rotation=-90;fillColor=#dae8fc;strokeColor=#6c8ebf;imageAspect=0;" vertex="1" parent="1">
          <mxGeometry x="615" y="125" width="120" height="30" as="geometry" />
        </mxCell>
        <mxCell id="hVWltW0Ck8g595AkQHXP-73" value="16" style="rounded=0;whiteSpace=wrap;html=1;rotation=-90;fillColor=#dae8fc;strokeColor=#6c8ebf;imageAspect=0;" vertex="1" parent="1">
          <mxGeometry x="680" y="125" width="120" height="30" as="geometry" />
        </mxCell>
        <mxCell id="hVWltW0Ck8g595AkQHXP-77" style="edgeStyle=orthogonalEdgeStyle;shape=flexArrow;rounded=0;orthogonalLoop=1;jettySize=auto;html=1;entryX=0;entryY=0.5;entryDx=0;entryDy=0;fillColor=#e1d5e7;strokeColor=#9673a6;" edge="1" parent="1" target="hVWltW0Ck8g595AkQHXP-72">
          <mxGeometry relative="1" as="geometry">
            <mxPoint x="675" y="230" as="sourcePoint" />
            <mxPoint x="620" y="330" as="targetPoint" />
          </mxGeometry>
        </mxCell>
        <mxCell id="hVWltW0Ck8g595AkQHXP-78" style="edgeStyle=orthogonalEdgeStyle;shape=flexArrow;rounded=0;orthogonalLoop=1;jettySize=auto;html=1;exitX=0.5;exitY=1;exitDx=0;exitDy=0;entryX=0.5;entryY=0;entryDx=0;entryDy=0;fillColor=#f8cecc;strokeColor=#b85450;" edge="1" parent="1" source="hVWltW0Ck8g595AkQHXP-72" target="hVWltW0Ck8g595AkQHXP-73">
          <mxGeometry relative="1" as="geometry">
            <mxPoint x="635" y="285" as="sourcePoint" />
            <mxPoint x="670" y="285" as="targetPoint" />
          </mxGeometry>
        </mxCell>
      </root>
    </mxGraphModel>
  </diagram>
</mxfile>
